<?xml version="1.0" encoding="UTF-8" standalone="no"?>
<!DOCTYPE svg PUBLIC "-//W3C//DTD SVG 1.1//EN" "http://www.w3.org/Graphics/SVG/1.1/DTD/svg11.dtd">
<svg width="100%" height="100%" viewBox="0 0 250 250" version="1.1" xmlns="http://www.w3.org/2000/svg" xmlns:xlink="http://www.w3.org/1999/xlink" xml:space="preserve" xmlns:serif="http://www.serif.com/" style="fill-rule:evenodd;clip-rule:evenodd;stroke-linejoin:round;stroke-miterlimit:2;">
    <g transform="matrix(-3.77494,-4.62297e-16,4.62297e-16,-3.77494,489.77,864.842)">
        <path d="M107.647,211.218L80.431,211.218C78.277,211.218 76.284,210.841 74.452,210.085C72.62,209.33 71.032,208.274 69.69,206.918C68.347,205.561 67.298,203.953 66.543,202.093C65.788,200.232 65.41,198.197 65.41,195.988C65.41,193.778 65.788,191.743 66.543,189.883C67.298,188.023 68.347,186.414 69.69,185.058C71.032,183.701 72.62,182.645 74.452,181.89C76.284,181.135 78.277,180.757 80.431,180.757C82.557,180.757 84.536,181.135 86.368,181.89C88.2,182.645 89.787,183.701 91.13,185.058C92.473,186.414 93.521,188.023 94.277,189.883C95.032,191.743 95.41,193.778 95.41,195.988C95.41,198.673 94.857,201.086 93.752,203.225C92.647,205.365 90.878,207.078 88.445,208.365L88.445,208.449L102.4,208.449C103.511,209.373 104.764,210.122 106.16,210.698C106.645,210.898 107.141,211.071 107.647,211.218ZM68.683,195.988C68.683,197.638 68.948,199.211 69.48,200.708C70.011,202.204 70.781,203.526 71.788,204.673C72.794,205.82 74.025,206.736 75.48,207.421C76.934,208.106 78.585,208.449 80.431,208.449C82.249,208.449 83.885,208.106 85.34,207.421C86.794,206.736 88.025,205.82 89.032,204.673C90.039,203.526 90.808,202.204 91.34,200.708C91.871,199.211 92.137,197.638 92.137,195.988C92.137,194.337 91.871,192.764 91.34,191.268C90.808,189.771 90.039,188.449 89.032,187.303C88.025,186.156 86.794,185.24 85.34,184.554C83.885,183.869 82.249,183.526 80.431,183.526C78.585,183.526 76.934,183.869 75.48,184.554C74.025,185.24 72.794,186.156 71.788,187.303C70.781,188.449 70.011,189.771 69.48,191.268C68.948,192.764 68.683,194.337 68.683,195.988Z" style="fill:rgb(254,81,37);"/>
    </g>
    <g transform="matrix(3.77494,9.24594e-16,-9.24594e-16,3.77494,-239.77,-614.842)">
        <path d="M107.647,211.218L80.431,211.218C78.277,211.218 76.284,210.841 74.452,210.085C72.62,209.33 71.032,208.274 69.69,206.918C68.347,205.561 67.298,203.953 66.543,202.093C65.788,200.232 65.41,198.197 65.41,195.988C65.41,193.778 65.788,191.743 66.543,189.883C67.298,188.023 68.347,186.414 69.69,185.058C71.032,183.701 72.62,182.645 74.452,181.89C76.284,181.135 78.277,180.757 80.431,180.757C82.557,180.757 84.536,181.135 86.368,181.89C88.2,182.645 89.787,183.701 91.13,185.058C92.473,186.414 93.521,188.023 94.277,189.883C95.032,191.743 95.41,193.778 95.41,195.988C95.41,198.673 94.857,201.086 93.752,203.225C92.647,205.365 90.878,207.078 88.445,208.365L88.445,208.449L102.4,208.449C103.511,209.373 104.764,210.122 106.16,210.698C106.645,210.898 107.141,211.071 107.647,211.218ZM68.683,195.988C68.683,197.638 68.948,199.211 69.48,200.708C70.011,202.204 70.781,203.526 71.788,204.673C72.794,205.82 74.025,206.736 75.48,207.421C76.934,208.106 78.585,208.449 80.431,208.449C82.249,208.449 83.885,208.106 85.34,207.421C86.794,206.736 88.025,205.82 89.032,204.673C90.039,203.526 90.808,202.204 91.34,200.708C91.871,199.211 92.137,197.638 92.137,195.988C92.137,194.337 91.871,192.764 91.34,191.268C90.808,189.771 90.039,188.449 89.032,187.303C88.025,186.156 86.794,185.24 85.34,184.554C83.885,183.869 82.249,183.526 80.431,183.526C78.585,183.526 76.934,183.869 75.48,184.554C74.025,185.24 72.794,186.156 71.788,187.303C70.781,188.449 70.011,189.771 69.48,191.268C68.948,192.764 68.683,194.337 68.683,195.988Z" style="fill:rgb(254,81,37);"/>
    </g>
</svg>
